<svg width="26" height="26" viewBox="0 0 26 26" fill="none" xmlns="http://www.w3.org/2000/svg">
<path fill-rule="evenodd" clip-rule="evenodd" d="M25.7467 12.9115C25.7467 20.045 19.9837 25.828 12.8733 25.828C5.763 25.828 0 20.045 0 12.9115C0 5.77911 5.763 -0.00390625 12.8733 -0.00390625C19.9837 -0.00390625 25.7467 5.77911 25.7467 12.9115ZM12.9927 19.131C9.63512 19.131 6.91391 16.3996 6.91391 13.0312C6.91391 9.66267 9.63512 6.93257 12.9927 6.93257C16.3502 6.93257 19.0714 9.66267 19.0714 13.0312H16.8612C16.8612 10.8875 15.1294 9.15002 12.9927 9.15002C10.8559 9.15002 9.12414 10.8875 9.12414 13.0312C9.12414 15.1749 10.8559 16.9123 12.9927 16.9123V19.131ZM12.9927 2.86644C7.39717 2.86644 2.86101 7.41741 2.86101 13.0312C2.86101 18.6449 7.39717 23.1971 12.9927 23.1971V20.6556C8.79634 20.6556 5.39422 17.2424 5.39422 13.0312C5.39422 8.82115 8.79634 5.40792 12.9927 5.40792C17.1902 5.40792 20.5911 8.82115 20.5911 13.0312H23.1243C23.1243 7.41741 18.5881 2.86644 12.9927 2.86644Z" fill="#5A668A"/>
</svg>
